<svg xmlns="http://www.w3.org/2000/svg" viewBox="0 0 1422 800"><g fill="none" stroke="hsl(353, 98%, 41%)" stroke-linecap="round" stroke-width="2.5"><path d="m0 0 60 60M120 0 60 60M180 0l-60 60M180 0l60 60M240 0l60 60M300 0l60 60M420 0l-60 60M420 0l60 60M480 0l60 60M600 0l-60 60M660 0l-60 60M720 0l-60 60M780 0l-60 60M840 0l-60 60M900 0l-60 60M900 0l60 60M960 0l60 60M1020 0l60 60M1080 0l60 60M1200 0l-60 60M1200 0l60 60M1320 0l-60 60M1380 0l-60 60M1440 0l-60 60"/><path d="m0 60 60 60M120 60l-60 60M180 60l-60 60M240 60l-60 60M240 60l60 60M360 60l-60 60M420 60l-60 60M480 60l-60 60M540 60l-60 60M540 60l60 60M660 60l-60 60M720 60l-60 60M720 60l60 60M840 60l-60 60M900 60l-60 60M960 60l-60 60M1020 60l-60 60M1020 60l60 60M1140 60l-60 60M1140 60l60 60M1260 60l-60 60M1320 60l-60 60M1320 60l60 60M1380 60l60 60" opacity=".93"/><path d="M60 120 0 180M60 120l60 60M120 120l60 60M240 120l-60 60M300 120l-60 60M300 120l60 60M360 120l60 60M480 120l-60 60M480 120l60 60M600 120l-60 60M600 120l60 60M720 120l-60 60M720 120l60 60M840 120l-60 60M840 120l60 60M900 120l60 60M960 120l60 60M1080 120l-60 60M1080 120l60 60M1140 120l60 60M1260 120l-60 60M1320 120l-60 60M1380 120l-60 60M1380 120l60 60" opacity=".86"/><path d="m0 180 60 60M60 180l60 60M180 180l-60 60M180 180l60 60M240 180l60 60M360 180l-60 60M360 180l60 60M480 180l-60 60M480 180l60 60M540 180l60 60M600 180l60 60M720 180l-60 60M720 180l60 60M840 180l-60 60M900 180l-60 60M900 180l60 60M960 180l60 60M1080 180l-60 60M1140 180l-60 60M1140 180l60 60M1200 180l60 60M1260 180l60 60M1320 180l60 60M1380 180l60 60" opacity=".79"/><path d="m0 240 60 60M120 240l-60 60M120 240l60 60M240 240l-60 60M240 240l60 60M360 240l-60 60M360 240l60 60M420 240l60 60M540 240l-60 60M540 240l60 60M600 240l60 60M720 240l-60 60M720 240l60 60M840 240l-60 60M840 240l60 60M900 240l60 60M960 240l60 60M1020 240l60 60M1080 240l60 60M1200 240l-60 60M1260 240l-60 60M1320 240l-60 60M1320 240l60 60M1440 240l-60 60" opacity=".72"/><path d="M60 300 0 360M120 300l-60 60M180 300l-60 60M240 300l-60 60M300 300l-60 60M300 300l60 60M360 300l60 60M420 300l60 60M480 300l60 60M600 300l-60 60M660 300l-60 60M720 300l-60 60M780 300l-60 60M840 300l-60 60M900 300l-60 60M900 300l60 60M960 300l60 60M1020 300l60 60M1080 300l60 60M1200 300l-60 60M1260 300l-60 60M1320 300l-60 60M1320 300l60 60M1440 300l-60 60" opacity=".64"/><path d="m0 360 60 60M60 360l60 60M180 360l-60 60M180 360l60 60M240 360l60 60M300 360l60 60M360 360l60 60M420 360l60 60M540 360l-60 60M540 360l60 60M600 360l60 60M660 360l60 60M780 360l-60 60M780 360l60 60M900 360l-60 60M900 360l60 60M960 360l60 60M1020 360l60 60M1080 360l60 60M1140 360l60 60M1260 360l-60 60M1320 360l-60 60M1320 360l60 60M1380 360l60 60" opacity=".57"/><path d="m0 420 60 60M120 420l-60 60M120 420l60 60M180 420l60 60M300 420l-60 60M360 420l-60 60M360 420l60 60M480 420l-60 60M540 420l-60 60M540 420l60 60M600 420l60 60M660 420l60 60M780 420l-60 60M780 420l60 60M900 420l-60 60M900 420l60 60M1020 420l-60 60M1080 420l-60 60M1140 420l-60 60M1140 420l60 60M1200 420l60 60M1260 420l60 60M1380 420l-60 60M1440 420l-60 60" opacity=".5"/><path d="m0 480 60 60M60 480l60 60M120 480l60 60M240 480l-60 60M300 480l-60 60M360 480l-60 60M360 480l60 60M420 480l60 60M540 480l-60 60M540 480l60 60M600 480l60 60M660 480l60 60M780 480l-60 60M840 480l-60 60M840 480l60 60M960 480l-60 60M1020 480l-60 60M1080 480l-60 60M1080 480l60 60M1140 480l60 60M1260 480l-60 60M1260 480l60 60M1320 480l60 60M1380 480l60 60" opacity=".43"/><path d="M60 540 0 600M60 540l60 60M120 540l60 60M240 540l-60 60M300 540l-60 60M360 540l-60 60M360 540l60 60M420 540l60 60M540 540l-60 60M600 540l-60 60M600 540l60 60M660 540l60 60M780 540l-60 60M780 540l60 60M900 540l-60 60M900 540l60 60M960 540l60 60M1080 540l-60 60M1140 540l-60 60M1200 540l-60 60M1260 540l-60 60M1320 540l-60 60M1380 540l-60 60M1440 540l-60 60" opacity=".36"/><path d="m0 600 60 60M60 600l60 60M120 600l60 60M180 600l60 60M240 600l60 60M360 600l-60 60M360 600l60 60M480 600l-60 60M540 600l-60 60M540 600l60 60M660 600l-60 60M660 600l60 60M780 600l-60 60M780 600l60 60M840 600l60 60M960 600l-60 60M960 600l60 60M1020 600l60 60M1080 600l60 60M1140 600l60 60M1260 600l-60 60M1320 600l-60 60M1380 600l-60 60M1380 600l60 60" opacity=".29"/><path d="M60 660 0 720M60 660l60 60M180 660l-60 60M240 660l-60 60M240 660l60 60M360 660l-60 60M360 660l60 60M420 660l60 60M540 660l-60 60M540 660l60 60M600 660l60 60M660 660l60 60M720 660l60 60M780 660l60 60M840 660l60 60M960 660l-60 60M960 660l60 60M1020 660l60 60M1140 660l-60 60M1200 660l-60 60M1260 660l-60 60M1260 660l60 60M1320 660l60 60M1380 660l60 60" opacity=".22"/><path d="M60 720 0 780M120 720l-60 60M180 720l-60 60M180 720l60 60M240 720l60 60M360 720l-60 60M360 720l60 60M480 720l-60 60M480 720l60 60M540 720l60 60M600 720l60 60M660 720l60 60M780 720l-60 60M840 720l-60 60M900 720l-60 60M900 720l60 60M960 720l60 60M1080 720l-60 60M1140 720l-60 60M1140 720l60 60M1260 720l-60 60M1320 720l-60 60M1320 720l60 60M1380 720l60 60" opacity=".15"/><path d="m0 780 60 60M60 780l60 60M120 780l60 60M240 780l-60 60M300 780l-60 60M300 780l60 60M360 780l60 60M480 780l-60 60M540 780l-60 60M540 780l60 60M660 780l-60 60M720 780l-60 60M720 780l60 60M840 780l-60 60M840 780l60 60M900 780l60 60M1020 780l-60 60M1080 780l-60 60M1080 780l60 60M1140 780l60 60M1200 780l60 60M1320 780l-60 60M1380 780l-60 60M1380 780l60 60" opacity=".07"/></g></svg>