<svg xmlns="http://www.w3.org/2000/svg" viewBox="0 0 800 800"><defs><filter id="b" width="400%" height="400%" x="-100%" y="-100%"><feGaussianBlur in="SourceGraphic" stdDeviation="2"/></filter><filter id="c" width="400%" height="400%" x="-100%" y="-100%"><feGaussianBlur in="SourceGraphic" stdDeviation="4"/></filter><filter id="a" width="400%" height="400%" x="-100%" y="-100%"><feGaussianBlur in="SourceGraphic" stdDeviation="12"/></filter></defs><g fill="hsl(353, 98%, 41%)"><path d="m6.484 476.768 12.106-24.82c6.779-13.9 23.026-19.495 36.926-12.716l-12.106 24.82c-6.779 13.9-23.026 19.495-36.926 12.716Z" opacity=".85"/><path d="m9.268 347.518 11.179-25.107c6.26-14.06 22.225-20.188 36.285-13.929L45.553 333.59c-6.26 14.06-22.225 20.188-36.285 13.929Z" opacity=".84"/><path d="M650 24h50c28 0 50 22 50 50h-50c-28 0-50-22-50-50Z" filter="url(#a)" opacity=".25" transform="scale(.16147) rotate(40 2167.97 5169.825)"/><path d="m75.117 519.422 6.937-25.89c3.885-14.5 18.33-22.84 32.83-18.954l-6.938 25.89c-3.885 14.5-18.33 22.84-32.83 18.954Z" opacity=".82"/><path d="m346.35 459.167 3.653-25.994c2.046-14.556 15.09-24.385 29.647-22.34l-3.653 25.994c-2.046 14.556-15.09 24.385-29.647 22.34Z" opacity=".81"/><path d="M171.195 725.61V700c0-14.342 11.268-25.61 25.61-25.61V700c0 14.342-11.268 25.61-25.61 25.61Z" opacity=".79"/><path d="m534.447 461.711-15.442-15.99c-8.648-8.955-8.406-22.785.548-31.432l15.442 15.99c8.648 8.955 8.406 22.785-.548 31.432Z" opacity=".68"/><path d="M558 742h50c28 0 50 22 50 50h-50c-28 0-50-22-50-50Z" filter="url(#b)" opacity=".54" transform="matrix(-.3455 .07976 -.07976 -.3455 879.243 983.5)"/><path d="m276.737 565.143 1.353-25.82c.758-14.458 12.714-25.224 27.173-24.466l-1.353 25.82c-.758 14.458-12.714 25.224-27.173 24.466Z" opacity=".79"/><path d="m153.923 130.736-8.233-22.62c-4.61-12.667 1.72-26.242 14.387-30.852l8.233 22.62c4.61 12.667-1.72 26.242-14.387 30.852Z" opacity=".74"/><path d="M91.2 108.317 80.513 87.343C74.53 75.598 79.055 61.668 90.8 55.683l10.687 20.974c5.984 11.745 1.458 25.675-10.287 31.66Z" opacity=".72"/><path d="m294.792 700.754 2.265-25.886c1.268-14.497 13.655-24.89 28.151-23.622l-2.265 25.886c-1.268 14.497-13.655 24.89-28.151 23.622Z" opacity=".8"/><path d="M418 77h50c28 0 50 22 50 50h-50c-28 0-50-22-50-50Z" filter="url(#b)" opacity=".56" transform="matrix(-.36345 .0382 -.0382 -.36345 641.991 121.194)"/><path d="m76.117 381.422 6.937-25.89c3.885-14.5 18.33-22.84 32.83-18.954l-6.938 25.89c-3.885 14.5-18.33 22.84-32.83 18.954Z" opacity=".82"/><path d="M648 277h50c28 0 50 22 50 50h-50c-28 0-50-22-50-50Z" filter="url(#c)" opacity=".42" transform="rotate(115 375.513 353.675) scale(.27563)"/><path d="M65 4h50c28 0 50 22 50 50h-50C87 54 65 32 65 4Z" filter="url(#b)" opacity=".61" transform="scale(-.3994) rotate(16 275.028 -1455.325)"/><path d="m74.117 599.422 6.937-25.89c3.885-14.5 18.33-22.84 32.83-18.954l-6.938 25.89c-3.885 14.5-18.33 22.84-32.83 18.954Z" opacity=".82"/><path d="m434.135 464.146-1.766-25.263c-.99-14.147 9.349-26.04 23.496-27.029l1.766 25.263c.99 14.147-9.349 26.04-23.496 27.029Z" opacity=".78"/><path d="m448.077 666.636-4.316-24.478c-2.417-13.708 6.454-26.377 20.162-28.794l4.316 24.478c2.417 13.708-6.454 26.377-20.162 28.794Z" opacity=".76"/><path d="M540 465h50c28 0 50 22 50 50h-50c-28 0-50-22-50-50Z" filter="url(#b)" opacity=".57" transform="rotate(178.997 403.888 338.157) scale(.37365)"/><path d="m315.29 370.599 2.728-25.963c1.529-14.54 14.153-24.763 28.692-23.235l-2.728 25.963c-1.529 14.54-14.153 24.763-28.692 23.235Z" opacity=".8"/><path d="m415.576 107.452-19.041-6.931c-10.664-3.881-15.993-15.31-12.111-25.973l19.041 6.931c10.664 3.881 15.993 15.31 12.111 25.973Z" opacity=".62"/><path d="M715 167h50c28 0 50 22 50 50h-50c-28 0-50-22-50-50Z" filter="url(#c)" opacity=".4" transform="matrix(-.07209 .2514 -.2514 -.07209 868.413 13.525)"/><path d="m476.485 598.792-7.105-23.24c-3.978-13.014 3.12-26.365 16.135-30.344l7.105 23.24c3.978 13.014-3.12 26.365-16.135 30.344Z" opacity=".75"/><path d="m189.344 53.075-18.705-8.723c-10.475-4.884-14.867-16.952-9.983-27.427l18.705 8.723c10.475 4.884 14.867 16.952 9.983 27.427Z" opacity=".63"/><path d="M633 731h50c28 0 50 22 50 50h-50c-28 0-50-22-50-50Z" filter="url(#c)" opacity=".44" transform="rotate(123 293.384 618.764) scale(.28738)"/><path d="m331.381 215.122 3.647-25.945c2.042-14.53 15.062-24.34 29.59-22.299l-3.646 25.945c-2.042 14.53-15.062 24.34-29.59 22.299Z" opacity=".81"/><path d="m285.792 788.754 2.265-25.886c1.268-14.497 13.655-24.89 28.151-23.622l-2.265 25.886c-1.268 14.497-13.655 24.89-28.151 23.622Z" opacity=".8"/><path d="m5.484 785.768 12.106-24.82c6.779-13.9 23.026-19.495 36.926-12.716l-12.106 24.82c-6.779 13.9-23.026 19.495-36.926 12.716Z" opacity=".85"/><path d="M525 13h50c28 0 50 22 50 50h-50c-28 0-50-22-50-50Z" filter="url(#a)" opacity=".28" transform="rotate(56 311.658 463.047) scale(.18528)"/><path d="M710 740h50c28 0 50 22 50 50h-50c-28 0-50-22-50-50Z" filter="url(#c)" opacity=".4" transform="matrix(-.07209 .2514 -.2514 -.07209 1007.1 629.087)"/><path d="M646 563h50c28 0 50 22 50 50h-50c-28 0-50-22-50-50Z" filter="url(#c)" opacity=".42" transform="rotate(115 308.246 535.629) scale(.27563)"/><path d="M569 398h50c28 0 50 22 50 50h-50c-28 0-50-22-50-50Z" filter="url(#b)" opacity=".51" transform="scale(-.33586) rotate(-26 -4255.726 4913.846)"/><path d="m485.458 195.84-12.302-19.689c-6.89-11.025-3.64-25.101 7.386-31.99l12.302 19.688c6.89 11.025 3.64 25.101-7.386 31.99Z" opacity=".71"/><path d="m475.485 396.792-7.105-23.24c-3.978-13.014 3.12-26.365 16.135-30.344l7.105 23.24c3.978 13.014-3.12 26.365-16.135 30.344Z" opacity=".75"/><path d="m347.014 148.963-11.997-19.965c-6.717-11.18-3.211-25.243 7.97-31.961l11.996 19.965c6.717 11.18 3.211 25.243-7.97 31.961Z" opacity=".72"/><path d="m250.056 46.814-19.17-6.229c-10.736-3.488-16.43-14.664-12.942-25.4l19.17 6.23c10.736 3.488 16.43 14.664 12.942 25.4Z" opacity=".62"/><path d="m340.35 538.167 3.653-25.994c2.046-14.556 15.09-24.385 29.647-22.34l-3.653 25.994c-2.046 14.556-15.09 24.385-29.647 22.34Z" opacity=".81"/><path d="m438.135 795.146-1.766-25.263c-.99-14.147 9.349-26.04 23.496-27.029l1.766 25.263c.99 14.147-9.349 26.04-23.496 27.029Z" opacity=".78"/><path d="M624 341h50c28 0 50 22 50 50h-50c-28 0-50-22-50-50Z" filter="url(#c)" opacity=".44" transform="rotate(123 363.04 365.983) scale(.28738)"/><path d="m320.381 282.122 3.647-25.945c2.042-14.53 15.062-24.34 29.59-22.299l-3.646 25.945c-2.042 14.53-15.062 24.34-29.59 22.299Z" opacity=".81"/></g><g fill="none" stroke="hsl(353, 98%, 41%)" stroke-width="3"><path stroke-width="1.6374900000000001" d="m31.125 662.192 10.223-25.304c5.725-14.17 21.357-20.805 35.527-15.08l-10.223 25.304c-5.725 14.17-21.357 20.805-35.527 15.08Z" opacity=".84"/><path stroke-width="1.45416" d="m276.964 174.795-7.489-23.05c-4.194-12.908 2.653-26.346 15.56-30.54l7.49 23.05c4.194 12.908-2.653 26.346-15.56 30.54Z" opacity=".74"/><path d="M711 339h50c28 0 50 22 50 50h-50c-28 0-50-22-50-50Z" filter="url(#c)" opacity=".4" transform="matrix(-.07209 .2514 -.2514 -.07209 907.364 198.93)"/><path stroke-width="1.5366" d="M171.195 619.61V594c0-14.342 11.268-25.61 25.61-25.61V594c0 14.342-11.268 25.61-25.61 25.61Z" opacity=".79"/><path d="M643 110h50c28 0 50 22 50 50h-50c-28 0-50-22-50-50Z" filter="url(#c)" opacity=".38" transform="matrix(-.03027 .2465 -.2465 -.03027 747.253 -31.74)"/><path stroke-width="1.5376499999999997" d="M247.186 625.628V600c0-14.352 11.276-25.628 25.628-25.628V600c0 14.352-11.276 25.628-25.628 25.628Z" opacity=".79"/><path stroke-width="1.49133" d="m445.077 327.636-4.316-24.478c-2.417-13.708 6.454-26.377 20.162-28.794l4.316 24.478c2.417 13.708-6.454 26.377-20.162 28.794Z" opacity=".76"/><path stroke-width="1.5376499999999997" d="M242.186 735.628V710c0-14.352 11.276-25.628 25.628-25.628V710c0 14.352-11.276 25.628-25.628 25.628Z" opacity=".79"/><path stroke-width="1.56636" d="m316.29 622.599 2.728-25.963c1.529-14.54 14.153-24.763 28.692-23.235l-2.728 25.963c-1.529 14.54-14.153 24.763-28.692 23.235Z" opacity=".8"/><path stroke-width="1.5575999999999999" d="m18.24 138.991 1.812-25.896c1.014-14.503 13.205-25.1 27.707-24.086l-1.81 25.896c-1.015 14.503-13.206 25.1-27.708 24.086Z" opacity=".8"/><path stroke-width="1.23261" d="m570.897 393.482-18.91-8.027c-10.59-4.495-15.379-16.347-10.884-26.937l18.91 8.027c10.59 4.495 15.379 16.347 10.884 26.937Z" opacity=".63"/><path d="M403 10h50c28 0 50 22 50 50h-50c-28 0-50-22-50-50Z" filter="url(#b)" opacity=".5" transform="rotate(147.999 296.96 66.98) scale(.32601)"/><path d="M649 404h50c28 0 50 22 50 50h-50c-28 0-50-22-50-50Z" filter="url(#c)" opacity=".42" transform="rotate(115 346.847 434.908) scale(.27563)"/><path stroke-width="1.55256" d="m148.726 500.163 1.354-25.84c.758-14.47 12.724-25.245 27.194-24.486l-1.354 25.84c-.758 14.47-12.724 25.245-27.194 24.486Z" opacity=".8"/><path stroke-width="1.55823" d="m387.8 606.74 2.264-25.872c1.268-14.488 13.647-24.875 28.135-23.608l-2.263 25.872c-1.268 14.488-13.647 24.875-28.135 23.608Z" opacity=".8"/><path d="M580 160h50c28 0 50 22 50 50h-50c-28 0-50-22-50-50Z" filter="url(#b)" opacity=".51" transform="scale(-.33586) rotate(-26 -2216.47 5243.91)"/><path stroke-width="1.23414" d="m359.608 59.762-18.791-8.367c-10.523-4.685-15.11-16.634-10.425-27.157l18.791 8.367c10.523 4.685 15.11 16.634 10.425 27.157Z" opacity=".63"/><path d="M716 11h50c28 0 50 22 50 50h-50c-28 0-50-22-50-50Z" filter="url(#c)" opacity=".36" transform="rotate(89 459.132 320.254) scale(.23535)"/><path d="M716 252h50c28 0 50 22 50 50h-50c-28 0-50-22-50-50Z" filter="url(#c)" opacity=".4" transform="matrix(-.07209 .2514 -.2514 -.07209 890.854 104.4)"/><path stroke-width="1.5327000000000002" d="m196.675 320.764-.446-25.541c-.25-14.303 10.793-25.738 25.096-25.987l.446 25.541c.25 14.303-10.793 25.738-25.096 25.987Z" opacity=".79"/><path stroke-width="1.55256" d="m145.726 791.163 1.354-25.84c.758-14.47 12.724-25.245 27.194-24.486l-1.354 25.84c-.758 14.47-12.724 25.245-27.194 24.486Z" opacity=".8"/><path stroke-width="1.54386" d="m265.687 237.502.45-25.727c.251-14.407 11.768-25.529 26.176-25.277l-.45 25.727c-.251 14.407-11.768 25.529-26.176 25.277Z" opacity=".79"/><path stroke-width="1.55256" d="m136.726 433.163 1.354-25.84c.758-14.47 12.724-25.245 27.194-24.486l-1.354 25.84c-.758 14.47-12.724 25.245-27.194 24.486Z" opacity=".8"/><path stroke-width="1.6082699999999999" d="m76.117 792.422 6.937-25.89c3.885-14.5 18.33-22.84 32.83-18.954l-6.938 25.89c-3.885 14.5-18.33 22.84-32.83 18.954Z" opacity=".82"/><path stroke-width="1.37901" d="m509.77 726.419-13.184-18.828c-7.382-10.543-4.899-24.627 5.645-32.01l13.183 18.828c7.382 10.543 4.899 24.627-5.645 32.01Z" opacity=".71"/><path stroke-width="1.57776" d="m114.9 662.915 4.114-25.972c2.304-14.544 15.541-24.162 30.086-21.858l-4.114 25.972c-2.304 14.544-15.541 24.162-30.086 21.858Z" opacity=".81"/><path d="M632 473h50c28 0 50 22 50 50h-50c-28 0-50-22-50-50Z" filter="url(#c)" opacity=".44" transform="rotate(123 342.654 452.498) scale(.28738)"/><path stroke-width="1.5316800000000002" d="m211.683 676.747-.445-25.524c-.25-14.294 10.785-25.72 25.079-25.97l.445 25.524c.25 14.294-10.785 25.72-25.079 25.97Z" opacity=".78"/><path d="M462 11h50c28 0 50 22 50 50h-50c-28 0-50-22-50-50Z" filter="url(#c)" opacity=".4" transform="matrix(-.0724 .2525 -.2525 -.0724 558.159 -90.67)"/><path stroke-width="1.5316800000000002" d="m209.683 549.747-.445-25.524c-.25-14.294 10.785-25.72 25.079-25.97l.445 25.524c.25 14.294-10.785 25.72-25.079 25.97Z" opacity=".78"/></g></svg>