<svg xmlns="http://www.w3.org/2000/svg" width="340.531" height="419.116"><g clip-path="url(#clip-files-new)"><path fill="white" d="M39.292 419.115A39.292 39.292 0 0 1 0 379.823V39.292A39.292 39.292 0 0 1 39.292 0H248.85a13.1 13.1 0 0 1 9.3 3.8l78.584 78.584a13.1 13.1 0 0 1 3.8 9.3v288.139a39.292 39.292 0 0 1-39.292 39.292Zm-13.1-379.823v340.531a13.1 13.1 0 0 0 13.1 13.1h261.947a13.1 13.1 0 0 0 13.1-13.1V104.779h-52.39a26.2 26.2 0 0 1-26.194-26.195v-52.39H39.295a13.1 13.1 0 0 0-13.1 13.098Zm146.5 241.621a14.269 14.269 0 0 1-7.883-12.758v-19.113H95.968c-7.869 0-7.87-47.619 0-47.619h68.842v-18.8a14.271 14.271 0 0 1 7.882-12.758 14.239 14.239 0 0 1 14.925 1.354l57.019 42.764c.242.185.328.485.555.671a13.9 13.9 0 0 1 2.751 3.292 14.57 14.57 0 0 1 .984 1.454 14.114 14.114 0 0 1 1.411 5.987 14.006 14.006 0 0 1-1.411 5.973 14.653 14.653 0 0 1-.984 1.468 13.9 13.9 0 0 1-2.751 3.293c-.228.2-.313.485-.555.671l-57.019 42.764a14.26 14.26 0 0 1-8.558 2.847 14.326 14.326 0 0 1-6.359-1.49Z" data-name="Union 2"/></g></svg>